<?xml version="1.0" standalone="no"?>
<!DOCTYPE svg PUBLIC "-//W3C//DTD SVG 20010904//EN"
 "http://www.w3.org/TR/2001/REC-SVG-20010904/DTD/svg10.dtd">
<svg version="1.0" xmlns="http://www.w3.org/2000/svg"
 width="1000.000000pt" height="50.000000pt" viewBox="0 0 1000.000000 50.000000"
 preserveAspectRatio="xMidYMid meet">

<g transform="translate(0.000000,50.000000) scale(0.100000,-0.100000)"
fill="#e37575" stroke="none">
<path d="M174 404 c-20 -20 -25 -33 -22 -60 4 -31 2 -33 -17 -27 -55 20 -115
-10 -115 -57 0 -26 36 -67 66 -74 25 -7 25 -8 10 -25 -9 -10 -19 -34 -22 -53
-14 -85 103 -103 140 -21 9 20 11 19 31 -11 28 -41 68 -55 103 -35 35 19 42
75 14 109 l-19 24 31 15 c40 21 58 56 45 90 -6 14 -16 29 -22 33 -18 11 -81
10 -93 -2 -8 -8 -11 3 -10 35 1 38 -4 50 -23 66 -32 26 -67 24 -97 -7z m94
-183 c7 -48 -53 -70 -81 -30 -19 26 -11 58 17 69 27 10 60 -10 64 -39z"/>
<path d="M704 404 c-21 -20 -25 -33 -22 -60 3 -27 1 -33 -10 -29 -57 22 -100
8 -115 -38 -11 -35 12 -74 54 -89 28 -10 29 -12 14 -28 -9 -10 -18 -33 -21
-52 -5 -30 -2 -38 21 -56 15 -12 35 -22 45 -22 23 0 70 37 80 64 8 20 8 20 18
-5 21 -53 77 -73 120 -43 28 19 29 72 3 106 l-20 24 34 12 c56 21 68 93 21
124 -17 11 -81 9 -92 -2 -8 -8 -11 3 -10 35 1 38 -4 50 -23 66 -32 26 -67 24
-97 -7z m84 -156 c16 -16 15 -53 -2 -68 -36 -29 -92 13 -75 58 9 25 56 31 77
10z"/>
<path d="M1233 404 c-21 -21 -24 -32 -20 -61 5 -29 3 -34 -9 -29 -59 23 -101
9 -117 -37 -11 -35 12 -74 54 -89 28 -10 29 -12 14 -28 -25 -27 -30 -83 -10
-103 40 -41 102 -25 131 32 11 22 12 21 32 -13 25 -42 64 -56 101 -35 34 19
40 75 13 109 l-19 24 31 15 c40 21 58 56 45 90 -6 14 -16 29 -22 33 -18 11
-81 10 -93 -2 -8 -8 -11 3 -10 35 1 38 -4 50 -23 66 -32 26 -67 24 -98 -7z
m95 -183 c7 -48 -53 -70 -81 -30 -19 26 -11 58 17 69 27 10 60 -10 64 -39z"/>
<path d="M1764 404 c-21 -20 -25 -33 -22 -60 3 -27 1 -33 -10 -29 -57 22 -100
8 -115 -38 -11 -35 12 -74 54 -89 28 -10 29 -12 14 -28 -9 -10 -18 -33 -21
-52 -5 -30 -2 -38 21 -56 15 -12 35 -22 45 -22 23 0 70 37 79 63 7 18 10 16
29 -16 25 -43 64 -57 101 -36 34 19 40 71 13 109 l-20 27 33 12 c56 20 68 92
21 123 -17 11 -81 9 -92 -2 -8 -8 -11 3 -10 33 2 82 -66 116 -120 61z m94
-183 c8 -50 -55 -70 -83 -27 -18 27 -11 54 19 66 27 10 60 -10 64 -39z"/>
<path d="M2293 404 c-21 -21 -24 -32 -20 -61 5 -29 3 -34 -9 -29 -59 23 -101
9 -117 -37 -11 -35 12 -74 54 -89 28 -10 29 -12 14 -28 -9 -10 -18 -33 -21
-52 -5 -30 -2 -38 21 -56 15 -12 35 -22 45 -22 23 0 70 37 79 63 7 18 10 16
29 -16 25 -43 64 -57 101 -36 34 19 40 71 13 109 l-20 26 28 11 c56 21 72 79
34 118 -17 17 -66 20 -93 5 -16 -8 -18 -4 -17 36 1 37 -4 50 -23 65 -32 26
-67 24 -98 -7z m95 -183 c7 -48 -53 -70 -81 -30 -19 26 -11 58 17 69 27 10 60
-10 64 -39z"/>
<path d="M2823 404 c-21 -21 -24 -32 -20 -61 5 -29 3 -34 -9 -29 -59 23 -101
9 -117 -37 -11 -35 12 -74 54 -89 27 -9 29 -12 15 -27 -9 -10 -19 -32 -22 -50
-5 -25 -2 -37 16 -56 13 -14 33 -25 45 -25 27 0 74 35 85 64 8 20 8 20 18 -5
31 -80 142 -75 142 5 0 19 -9 44 -19 57 -19 24 -19 24 9 36 83 34 69 133 -19
133 -20 0 -42 -5 -47 -10 -8 -8 -11 3 -10 35 1 38 -4 50 -23 66 -32 26 -67 24
-98 -7z m95 -183 c7 -48 -53 -70 -81 -30 -19 26 -11 58 17 69 27 10 60 -10 64
-39z"/>
<path d="M3353 404 c-21 -21 -24 -32 -20 -61 5 -29 3 -34 -9 -29 -59 23 -101
9 -117 -37 -11 -35 12 -74 54 -89 27 -9 29 -12 15 -27 -9 -10 -19 -32 -22 -50
-5 -25 -2 -37 16 -56 13 -14 33 -25 45 -25 27 0 74 35 84 63 7 18 10 16 29
-16 25 -43 64 -57 101 -36 34 19 40 71 13 109 l-20 27 33 12 c56 20 68 92 21
123 -16 11 -80 10 -91 -1 -6 -6 -10 7 -10 35 0 36 -5 50 -24 65 -32 26 -67 24
-98 -7z m95 -183 c4 -28 -14 -51 -42 -51 -30 0 -46 18 -46 52 0 55 80 54 88
-1z"/>
<path d="M3883 404 c-21 -21 -24 -32 -20 -61 5 -29 3 -34 -9 -29 -59 23 -101
9 -117 -37 -11 -35 12 -74 53 -89 l29 -10 -20 -31 c-10 -18 -19 -42 -19 -54 0
-24 43 -63 70 -63 23 0 70 37 80 64 8 20 8 20 18 -5 21 -53 77 -73 120 -43 28
19 29 72 3 106 l-20 24 34 12 c56 21 68 93 21 124 -17 11 -81 9 -92 -2 -8 -8
-11 3 -10 35 1 38 -4 50 -23 66 -32 26 -67 24 -98 -7z m95 -183 c7 -48 -53
-70 -81 -30 -19 26 -11 58 17 69 27 10 60 -10 64 -39z"/>
<path d="M4413 404 c-21 -21 -24 -32 -20 -61 5 -29 3 -34 -9 -29 -59 23 -101
9 -117 -37 -11 -35 12 -74 53 -89 l29 -10 -20 -31 c-10 -18 -19 -42 -19 -54 0
-24 43 -63 70 -63 23 0 70 37 79 63 7 18 10 16 29 -16 25 -43 64 -57 101 -36
34 19 40 71 13 109 l-20 27 33 12 c56 20 68 92 21 123 -15 11 -64 10 -84 -1
-15 -8 -17 -3 -17 34 0 80 -68 113 -122 59z m95 -183 c4 -28 -14 -51 -42 -51
-30 0 -46 18 -46 52 0 55 80 54 88 -1z"/>
<path d="M4943 404 c-21 -21 -24 -32 -20 -61 5 -29 3 -34 -9 -29 -59 23 -101
9 -117 -37 -11 -35 12 -74 53 -89 l29 -10 -20 -31 c-10 -18 -19 -42 -19 -54 0
-24 43 -63 70 -63 23 0 70 37 79 63 7 18 10 16 29 -16 25 -43 64 -57 101 -36
34 19 40 71 13 109 l-20 27 33 12 c56 20 68 92 21 123 -15 11 -64 10 -84 -1
-15 -8 -17 -3 -17 34 0 80 -68 113 -122 59z m95 -183 c7 -48 -53 -70 -82 -30
-17 25 -4 65 23 72 24 6 56 -17 59 -42z"/>
<path d="M5473 404 c-21 -21 -24 -32 -20 -61 5 -29 3 -34 -9 -29 -59 23 -101
9 -117 -37 -11 -35 12 -74 53 -89 l29 -10 -20 -31 c-10 -18 -19 -42 -19 -54 0
-24 43 -63 70 -63 23 0 70 37 79 64 8 19 9 19 25 -11 27 -54 75 -68 116 -35
28 23 29 65 2 101 l-20 28 33 12 c56 20 68 92 21 123 -15 11 -64 10 -84 -1
-15 -8 -17 -3 -17 34 0 80 -68 113 -122 59z m95 -183 c4 -28 -14 -51 -42 -51
-30 0 -46 18 -46 52 0 55 80 54 88 -1z"/>
<path d="M6003 404 c-21 -21 -24 -32 -20 -61 5 -29 3 -34 -9 -29 -59 23 -101
9 -117 -37 -11 -35 12 -74 53 -89 l29 -10 -20 -31 c-26 -44 -24 -72 7 -96 38
-30 61 -26 102 15 24 24 38 32 41 23 8 -25 50 -59 73 -59 62 0 90 70 49 122
l-20 24 34 12 c56 21 68 93 21 124 -16 11 -80 10 -91 -1 -6 -6 -10 6 -10 33 0
81 -68 114 -122 60z m95 -183 c7 -48 -53 -70 -81 -30 -19 26 -11 58 17 69 27
10 60 -10 64 -39z"/>
<path d="M6533 404 c-21 -21 -24 -32 -20 -60 3 -19 4 -34 3 -34 -2 0 -16 5
-33 10 -94 33 -137 -86 -47 -130 l31 -15 -18 -30 c-11 -16 -19 -40 -19 -52 0
-24 43 -63 70 -63 23 0 70 37 79 64 8 19 9 19 25 -11 27 -54 75 -68 116 -35
28 23 29 65 2 101 l-20 28 33 12 c56 20 68 92 21 123 -16 11 -80 10 -91 -1 -6
-6 -10 6 -10 33 0 81 -68 114 -122 60z m95 -183 c4 -28 -14 -51 -42 -51 -30 0
-46 18 -46 52 0 55 80 54 88 -1z"/>
<path d="M7063 404 c-21 -21 -24 -32 -20 -60 3 -19 4 -34 3 -34 -2 0 -16 5
-33 10 -94 33 -137 -86 -47 -130 l31 -15 -18 -30 c-26 -41 -24 -70 7 -94 38
-30 61 -26 102 15 24 24 38 32 41 23 8 -25 50 -59 73 -59 62 0 90 70 49 122
l-20 24 34 12 c56 21 68 93 21 124 -16 11 -64 10 -86 -2 -16 -9 -18 -6 -13 28
11 79 -68 122 -124 66z m95 -183 c8 -50 -56 -68 -85 -24 -14 20 -13 24 12 48
24 25 28 26 48 12 12 -8 23 -24 25 -36z"/>
<path d="M7593 404 c-21 -21 -24 -32 -20 -60 3 -19 4 -34 3 -34 -2 0 -16 5
-33 10 -94 33 -138 -89 -47 -129 l31 -13 -21 -39 c-19 -36 -20 -41 -6 -66 23
-41 63 -52 98 -26 15 11 32 30 39 43 l11 23 16 -31 c27 -53 76 -67 116 -34 28
23 29 65 2 101 l-20 28 32 11 c55 20 71 98 26 122 -24 13 -83 13 -95 1 -6 -6
-10 6 -10 33 0 81 -68 114 -122 60z m95 -183 c2 -12 -2 -29 -9 -37 -15 -19
-59 -14 -72 7 -14 22 -1 67 21 72 24 6 56 -16 60 -42z"/>
<path d="M8123 404 c-21 -21 -24 -32 -20 -60 3 -19 4 -34 3 -34 -2 0 -16 5
-33 10 -94 33 -137 -86 -47 -130 l31 -15 -18 -30 c-26 -41 -24 -70 7 -94 38
-30 61 -26 102 15 24 24 38 32 41 23 9 -28 51 -59 79 -59 57 0 82 71 43 122
l-20 24 34 12 c72 27 67 124 -7 130 -21 2 -46 -2 -57 -7 -18 -10 -19 -8 -14
27 11 79 -68 122 -124 66z m95 -183 c2 -12 -2 -29 -9 -37 -15 -19 -59 -14 -72
7 -14 22 -1 67 21 72 24 6 56 -16 60 -42z"/>
<path d="M8653 404 c-21 -21 -24 -32 -20 -60 3 -19 4 -34 3 -34 -2 0 -16 5
-33 10 -94 33 -137 -86 -47 -130 l31 -15 -18 -30 c-11 -16 -19 -40 -19 -52 0
-22 42 -63 66 -63 28 0 63 24 77 53 l15 30 16 -31 c27 -53 75 -67 116 -34 28
23 29 65 2 101 l-20 28 32 11 c55 20 71 98 26 122 -23 12 -66 13 -88 1 -15 -8
-17 -3 -17 34 0 80 -68 113 -122 59z m95 -183 c4 -28 -14 -51 -42 -51 -47 0
-63 57 -24 84 19 13 25 14 43 2 11 -7 21 -23 23 -35z"/>
<path d="M9183 404 c-21 -21 -24 -32 -20 -60 6 -38 8 -38 -28 -24 -38 14 -73
2 -91 -31 -19 -38 -2 -77 42 -99 l31 -15 -18 -30 c-11 -16 -19 -40 -19 -52 0
-26 44 -63 75 -63 22 0 67 34 79 61 5 12 7 12 12 0 13 -29 54 -61 77 -61 62 0
89 66 49 119 l-20 28 32 11 c55 20 71 98 26 122 -24 13 -66 13 -90 0 -16 -9
-18 -6 -13 28 11 79 -68 122 -124 66z m93 -171 c9 -35 -7 -58 -41 -58 -34 0
-50 23 -41 58 5 23 12 27 41 27 29 0 36 -4 41 -27z"/>
<path d="M9713 404 c-21 -21 -24 -32 -20 -60 6 -33 4 -34 -16 -27 -12 4 -35 7
-50 7 -78 -3 -80 -119 -2 -138 l23 -6 -21 -40 c-20 -37 -21 -42 -7 -67 23 -41
63 -52 98 -26 15 11 32 30 39 43 l11 23 16 -31 c27 -53 76 -67 116 -34 28 23
29 65 2 101 l-20 28 32 11 c55 20 71 98 26 122 -24 13 -66 13 -90 0 -16 -9
-18 -6 -13 28 11 79 -68 122 -124 66z m97 -184 c0 -31 -17 -50 -45 -50 -46 0
-62 57 -24 84 30 21 69 2 69 -34z"/>
</g>
</svg>
